<mxfile host="app.diagrams.net" modified="2021-04-28T08:12:17.443Z" agent="5.0 (Windows NT 10.0; Win64; x64) AppleWebKit/537.36 (KHTML, like Gecko) Chrome/90.0.4430.85 Safari/537.36" etag="kIjrh48CLv8h5Zu6UBX7" version="14.6.6" type="github">
  <diagram id="1STKxB_gt0mRnIr-PCfZ" name="第 1 页">
    <mxGraphModel dx="813" dy="403" grid="1" gridSize="10" guides="1" tooltips="1" connect="1" arrows="1" fold="1" page="1" pageScale="1" pageWidth="827" pageHeight="1169" math="0" shadow="0">
      <root>
        <mxCell id="0" />
        <mxCell id="1" parent="0" />
        <mxCell id="PihJG26BdaLCd9-Ymn3N-1" value="" style="rounded=1;whiteSpace=wrap;html=1;" vertex="1" parent="1">
          <mxGeometry x="80" y="292" width="240" height="100" as="geometry" />
        </mxCell>
        <mxCell id="PihJG26BdaLCd9-Ymn3N-65" style="edgeStyle=none;rounded=0;orthogonalLoop=1;jettySize=auto;html=1;exitX=0.5;exitY=0;exitDx=0;exitDy=0;entryX=-0.003;entryY=0.679;entryDx=0;entryDy=0;entryPerimeter=0;startArrow=none;startFill=0;" edge="1" parent="1" source="PihJG26BdaLCd9-Ymn3N-2" target="PihJG26BdaLCd9-Ymn3N-64">
          <mxGeometry relative="1" as="geometry" />
        </mxCell>
        <mxCell id="PihJG26BdaLCd9-Ymn3N-2" value="&lt;i&gt;E&lt;sub&gt;q&lt;/sub&gt;(q)&lt;/i&gt;" style="rounded=0;whiteSpace=wrap;html=1;fillColor=#f8cecc;strokeColor=#b85450;" vertex="1" parent="1">
          <mxGeometry x="89" y="256" width="40" height="20" as="geometry" />
        </mxCell>
        <mxCell id="PihJG26BdaLCd9-Ymn3N-28" style="edgeStyle=none;rounded=0;orthogonalLoop=1;jettySize=auto;html=1;exitX=0.5;exitY=0;exitDx=0;exitDy=0;entryX=0.511;entryY=1.193;entryDx=0;entryDy=0;entryPerimeter=0;startArrow=none;startFill=0;" edge="1" parent="1" source="PihJG26BdaLCd9-Ymn3N-3" target="PihJG26BdaLCd9-Ymn3N-2">
          <mxGeometry relative="1" as="geometry" />
        </mxCell>
        <mxCell id="PihJG26BdaLCd9-Ymn3N-3" value="" style="rounded=0;whiteSpace=wrap;html=1;fillColor=#dae8fc;strokeColor=#6c8ebf;" vertex="1" parent="1">
          <mxGeometry x="90" y="300" width="40" height="20" as="geometry" />
        </mxCell>
        <mxCell id="PihJG26BdaLCd9-Ymn3N-4" value="" style="rounded=0;whiteSpace=wrap;html=1;fillColor=#dae8fc;strokeColor=#6c8ebf;" vertex="1" parent="1">
          <mxGeometry x="140" y="300" width="40" height="20" as="geometry" />
        </mxCell>
        <mxCell id="PihJG26BdaLCd9-Ymn3N-5" value="" style="rounded=0;whiteSpace=wrap;html=1;fillColor=#dae8fc;strokeColor=#6c8ebf;" vertex="1" parent="1">
          <mxGeometry x="260" y="300" width="40" height="20" as="geometry" />
        </mxCell>
        <mxCell id="PihJG26BdaLCd9-Ymn3N-12" style="rounded=0;orthogonalLoop=1;jettySize=auto;html=1;entryX=0.5;entryY=1;entryDx=0;entryDy=0;exitX=0.5;exitY=0;exitDx=0;exitDy=0;" edge="1" parent="1" source="PihJG26BdaLCd9-Ymn3N-6" target="PihJG26BdaLCd9-Ymn3N-4">
          <mxGeometry relative="1" as="geometry">
            <mxPoint x="110" y="360" as="sourcePoint" />
          </mxGeometry>
        </mxCell>
        <mxCell id="PihJG26BdaLCd9-Ymn3N-16" style="edgeStyle=none;rounded=0;orthogonalLoop=1;jettySize=auto;html=1;exitX=0.5;exitY=0;exitDx=0;exitDy=0;startArrow=none;startFill=0;" edge="1" parent="1" source="PihJG26BdaLCd9-Ymn3N-6">
          <mxGeometry relative="1" as="geometry">
            <mxPoint x="109.85714285714289" y="320" as="targetPoint" />
          </mxGeometry>
        </mxCell>
        <mxCell id="PihJG26BdaLCd9-Ymn3N-21" style="edgeStyle=none;rounded=0;orthogonalLoop=1;jettySize=auto;html=1;exitX=0.5;exitY=0;exitDx=0;exitDy=0;startArrow=none;startFill=0;" edge="1" parent="1" source="PihJG26BdaLCd9-Ymn3N-6">
          <mxGeometry relative="1" as="geometry">
            <mxPoint x="280" y="320" as="targetPoint" />
          </mxGeometry>
        </mxCell>
        <mxCell id="PihJG26BdaLCd9-Ymn3N-6" value="" style="rounded=0;whiteSpace=wrap;html=1;fillColor=#dae8fc;strokeColor=#6c8ebf;" vertex="1" parent="1">
          <mxGeometry x="90" y="360" width="40" height="20" as="geometry" />
        </mxCell>
        <mxCell id="PihJG26BdaLCd9-Ymn3N-13" style="edgeStyle=none;rounded=0;orthogonalLoop=1;jettySize=auto;html=1;exitX=0.5;exitY=0;exitDx=0;exitDy=0;" edge="1" parent="1" source="PihJG26BdaLCd9-Ymn3N-7">
          <mxGeometry relative="1" as="geometry">
            <mxPoint x="160.1428571428571" y="320" as="targetPoint" />
          </mxGeometry>
        </mxCell>
        <mxCell id="PihJG26BdaLCd9-Ymn3N-14" style="edgeStyle=none;rounded=0;orthogonalLoop=1;jettySize=auto;html=1;exitX=0.5;exitY=0;exitDx=0;exitDy=0;entryX=0.5;entryY=1;entryDx=0;entryDy=0;startArrow=none;startFill=0;" edge="1" parent="1" source="PihJG26BdaLCd9-Ymn3N-7" target="PihJG26BdaLCd9-Ymn3N-3">
          <mxGeometry relative="1" as="geometry" />
        </mxCell>
        <mxCell id="PihJG26BdaLCd9-Ymn3N-20" style="edgeStyle=none;rounded=0;orthogonalLoop=1;jettySize=auto;html=1;exitX=0.5;exitY=0;exitDx=0;exitDy=0;startArrow=none;startFill=0;" edge="1" parent="1" source="PihJG26BdaLCd9-Ymn3N-7">
          <mxGeometry relative="1" as="geometry">
            <mxPoint x="280" y="320" as="targetPoint" />
          </mxGeometry>
        </mxCell>
        <mxCell id="PihJG26BdaLCd9-Ymn3N-7" value="" style="rounded=0;whiteSpace=wrap;html=1;fillColor=#dae8fc;strokeColor=#6c8ebf;" vertex="1" parent="1">
          <mxGeometry x="140" y="360" width="40" height="20" as="geometry" />
        </mxCell>
        <mxCell id="PihJG26BdaLCd9-Ymn3N-8" value="&lt;b&gt;. . .&lt;/b&gt;" style="text;html=1;align=center;verticalAlign=middle;resizable=0;points=[];autosize=1;strokeColor=none;" vertex="1" parent="1">
          <mxGeometry x="205" y="300" width="30" height="20" as="geometry" />
        </mxCell>
        <mxCell id="PihJG26BdaLCd9-Ymn3N-9" value="&lt;b&gt;. . .&lt;/b&gt;" style="text;html=1;align=center;verticalAlign=middle;resizable=0;points=[];autosize=1;strokeColor=none;" vertex="1" parent="1">
          <mxGeometry x="205" y="360" width="30" height="20" as="geometry" />
        </mxCell>
        <mxCell id="PihJG26BdaLCd9-Ymn3N-17" style="edgeStyle=none;rounded=0;orthogonalLoop=1;jettySize=auto;html=1;exitX=0.5;exitY=0;exitDx=0;exitDy=0;entryX=0.5;entryY=1;entryDx=0;entryDy=0;startArrow=none;startFill=0;" edge="1" parent="1" source="PihJG26BdaLCd9-Ymn3N-10" target="PihJG26BdaLCd9-Ymn3N-4">
          <mxGeometry relative="1" as="geometry" />
        </mxCell>
        <mxCell id="PihJG26BdaLCd9-Ymn3N-18" style="edgeStyle=none;rounded=0;orthogonalLoop=1;jettySize=auto;html=1;exitX=0.5;exitY=0;exitDx=0;exitDy=0;entryX=0.5;entryY=1;entryDx=0;entryDy=0;startArrow=none;startFill=0;" edge="1" parent="1" source="PihJG26BdaLCd9-Ymn3N-10" target="PihJG26BdaLCd9-Ymn3N-5">
          <mxGeometry relative="1" as="geometry" />
        </mxCell>
        <mxCell id="PihJG26BdaLCd9-Ymn3N-19" style="edgeStyle=none;rounded=0;orthogonalLoop=1;jettySize=auto;html=1;exitX=0.5;exitY=0;exitDx=0;exitDy=0;entryX=0.5;entryY=1;entryDx=0;entryDy=0;startArrow=none;startFill=0;" edge="1" parent="1" source="PihJG26BdaLCd9-Ymn3N-10" target="PihJG26BdaLCd9-Ymn3N-3">
          <mxGeometry relative="1" as="geometry" />
        </mxCell>
        <mxCell id="PihJG26BdaLCd9-Ymn3N-10" value="" style="rounded=0;whiteSpace=wrap;html=1;fillColor=#dae8fc;strokeColor=#6c8ebf;" vertex="1" parent="1">
          <mxGeometry x="260" y="360" width="40" height="20" as="geometry" />
        </mxCell>
        <mxCell id="PihJG26BdaLCd9-Ymn3N-27" style="edgeStyle=none;rounded=0;orthogonalLoop=1;jettySize=auto;html=1;exitX=0.5;exitY=0;exitDx=0;exitDy=0;entryX=0.5;entryY=1;entryDx=0;entryDy=0;startArrow=none;startFill=0;" edge="1" parent="1" source="PihJG26BdaLCd9-Ymn3N-11" target="PihJG26BdaLCd9-Ymn3N-6">
          <mxGeometry relative="1" as="geometry" />
        </mxCell>
        <mxCell id="PihJG26BdaLCd9-Ymn3N-11" value="[CLS]" style="rounded=0;whiteSpace=wrap;html=1;fillColor=#ffe6cc;strokeColor=#d79b00;" vertex="1" parent="1">
          <mxGeometry x="90" y="401" width="40" height="20" as="geometry" />
        </mxCell>
        <mxCell id="PihJG26BdaLCd9-Ymn3N-26" value="" style="edgeStyle=none;rounded=0;orthogonalLoop=1;jettySize=auto;html=1;startArrow=none;startFill=0;entryX=0.5;entryY=1;entryDx=0;entryDy=0;" edge="1" parent="1" source="PihJG26BdaLCd9-Ymn3N-22" target="PihJG26BdaLCd9-Ymn3N-7">
          <mxGeometry relative="1" as="geometry" />
        </mxCell>
        <mxCell id="PihJG26BdaLCd9-Ymn3N-22" value="&lt;i&gt;&lt;font style=&quot;font-size: 15px&quot;&gt;q&lt;/font&gt;&lt;sup&gt;(1)&lt;/sup&gt;&lt;/i&gt;" style="rounded=0;whiteSpace=wrap;html=1;fillColor=#ffe6cc;strokeColor=#d79b00;" vertex="1" parent="1">
          <mxGeometry x="140" y="401" width="40" height="20" as="geometry" />
        </mxCell>
        <mxCell id="PihJG26BdaLCd9-Ymn3N-25" style="edgeStyle=none;rounded=0;orthogonalLoop=1;jettySize=auto;html=1;entryX=0.5;entryY=1;entryDx=0;entryDy=0;startArrow=none;startFill=0;" edge="1" parent="1" source="PihJG26BdaLCd9-Ymn3N-24" target="PihJG26BdaLCd9-Ymn3N-10">
          <mxGeometry relative="1" as="geometry" />
        </mxCell>
        <mxCell id="PihJG26BdaLCd9-Ymn3N-24" value="&lt;i&gt;&lt;font style=&quot;font-size: 15px&quot;&gt;q&lt;/font&gt;&lt;sup&gt;(m)&lt;/sup&gt;&lt;/i&gt;" style="rounded=0;whiteSpace=wrap;html=1;fillColor=#ffe6cc;strokeColor=#d79b00;" vertex="1" parent="1">
          <mxGeometry x="260" y="401" width="40" height="20" as="geometry" />
        </mxCell>
        <mxCell id="PihJG26BdaLCd9-Ymn3N-29" value="" style="endArrow=none;html=1;" edge="1" parent="1">
          <mxGeometry width="50" height="50" relative="1" as="geometry">
            <mxPoint x="140" y="437" as="sourcePoint" />
            <mxPoint x="140" y="427" as="targetPoint" />
          </mxGeometry>
        </mxCell>
        <mxCell id="PihJG26BdaLCd9-Ymn3N-30" value="" style="endArrow=none;html=1;" edge="1" parent="1">
          <mxGeometry width="50" height="50" relative="1" as="geometry">
            <mxPoint x="301" y="437" as="sourcePoint" />
            <mxPoint x="301" y="427" as="targetPoint" />
          </mxGeometry>
        </mxCell>
        <mxCell id="PihJG26BdaLCd9-Ymn3N-31" value="" style="endArrow=none;html=1;" edge="1" parent="1">
          <mxGeometry width="50" height="50" relative="1" as="geometry">
            <mxPoint x="140" y="432" as="sourcePoint" />
            <mxPoint x="300" y="432" as="targetPoint" />
          </mxGeometry>
        </mxCell>
        <mxCell id="PihJG26BdaLCd9-Ymn3N-32" value="question" style="text;html=1;align=center;verticalAlign=middle;resizable=0;points=[];autosize=1;strokeColor=none;" vertex="1" parent="1">
          <mxGeometry x="194" y="434" width="60" height="20" as="geometry" />
        </mxCell>
        <mxCell id="PihJG26BdaLCd9-Ymn3N-34" value="" style="rounded=1;whiteSpace=wrap;html=1;" vertex="1" parent="1">
          <mxGeometry x="364" y="292" width="240" height="100" as="geometry" />
        </mxCell>
        <mxCell id="PihJG26BdaLCd9-Ymn3N-66" style="edgeStyle=none;rounded=0;orthogonalLoop=1;jettySize=auto;html=1;exitX=0.5;exitY=0;exitDx=0;exitDy=0;entryX=1.01;entryY=0.764;entryDx=0;entryDy=0;entryPerimeter=0;startArrow=none;startFill=0;" edge="1" parent="1" source="PihJG26BdaLCd9-Ymn3N-35" target="PihJG26BdaLCd9-Ymn3N-64">
          <mxGeometry relative="1" as="geometry" />
        </mxCell>
        <mxCell id="PihJG26BdaLCd9-Ymn3N-35" value="&lt;i&gt;E&lt;span style=&quot;font-size: 10px&quot;&gt;&lt;sub&gt;v&lt;/sub&gt;&lt;/span&gt;(v)&lt;/i&gt;" style="rounded=0;whiteSpace=wrap;html=1;fillColor=#f8cecc;strokeColor=#b85450;" vertex="1" parent="1">
          <mxGeometry x="373" y="256" width="40" height="20" as="geometry" />
        </mxCell>
        <mxCell id="PihJG26BdaLCd9-Ymn3N-36" style="edgeStyle=none;rounded=0;orthogonalLoop=1;jettySize=auto;html=1;exitX=0.5;exitY=0;exitDx=0;exitDy=0;entryX=0.511;entryY=1.193;entryDx=0;entryDy=0;entryPerimeter=0;startArrow=none;startFill=0;" edge="1" parent="1" source="PihJG26BdaLCd9-Ymn3N-37" target="PihJG26BdaLCd9-Ymn3N-35">
          <mxGeometry relative="1" as="geometry" />
        </mxCell>
        <mxCell id="PihJG26BdaLCd9-Ymn3N-37" value="" style="rounded=0;whiteSpace=wrap;html=1;fillColor=#dae8fc;strokeColor=#6c8ebf;" vertex="1" parent="1">
          <mxGeometry x="374" y="300" width="40" height="20" as="geometry" />
        </mxCell>
        <mxCell id="PihJG26BdaLCd9-Ymn3N-38" value="" style="rounded=0;whiteSpace=wrap;html=1;fillColor=#dae8fc;strokeColor=#6c8ebf;" vertex="1" parent="1">
          <mxGeometry x="424" y="300" width="40" height="20" as="geometry" />
        </mxCell>
        <mxCell id="PihJG26BdaLCd9-Ymn3N-39" value="" style="rounded=0;whiteSpace=wrap;html=1;fillColor=#dae8fc;strokeColor=#6c8ebf;" vertex="1" parent="1">
          <mxGeometry x="544" y="300" width="40" height="20" as="geometry" />
        </mxCell>
        <mxCell id="PihJG26BdaLCd9-Ymn3N-40" style="rounded=0;orthogonalLoop=1;jettySize=auto;html=1;entryX=0.5;entryY=1;entryDx=0;entryDy=0;exitX=0.5;exitY=0;exitDx=0;exitDy=0;" edge="1" parent="1" source="PihJG26BdaLCd9-Ymn3N-43" target="PihJG26BdaLCd9-Ymn3N-38">
          <mxGeometry relative="1" as="geometry">
            <mxPoint x="394" y="360" as="sourcePoint" />
          </mxGeometry>
        </mxCell>
        <mxCell id="PihJG26BdaLCd9-Ymn3N-41" style="edgeStyle=none;rounded=0;orthogonalLoop=1;jettySize=auto;html=1;exitX=0.5;exitY=0;exitDx=0;exitDy=0;startArrow=none;startFill=0;" edge="1" parent="1" source="PihJG26BdaLCd9-Ymn3N-43">
          <mxGeometry relative="1" as="geometry">
            <mxPoint x="393.8571428571429" y="320" as="targetPoint" />
          </mxGeometry>
        </mxCell>
        <mxCell id="PihJG26BdaLCd9-Ymn3N-42" style="edgeStyle=none;rounded=0;orthogonalLoop=1;jettySize=auto;html=1;exitX=0.5;exitY=0;exitDx=0;exitDy=0;startArrow=none;startFill=0;" edge="1" parent="1" source="PihJG26BdaLCd9-Ymn3N-43">
          <mxGeometry relative="1" as="geometry">
            <mxPoint x="564" y="320" as="targetPoint" />
          </mxGeometry>
        </mxCell>
        <mxCell id="PihJG26BdaLCd9-Ymn3N-43" value="" style="rounded=0;whiteSpace=wrap;html=1;fillColor=#dae8fc;strokeColor=#6c8ebf;" vertex="1" parent="1">
          <mxGeometry x="374" y="360" width="40" height="20" as="geometry" />
        </mxCell>
        <mxCell id="PihJG26BdaLCd9-Ymn3N-44" style="edgeStyle=none;rounded=0;orthogonalLoop=1;jettySize=auto;html=1;exitX=0.5;exitY=0;exitDx=0;exitDy=0;" edge="1" parent="1" source="PihJG26BdaLCd9-Ymn3N-47">
          <mxGeometry relative="1" as="geometry">
            <mxPoint x="444.1428571428571" y="320" as="targetPoint" />
          </mxGeometry>
        </mxCell>
        <mxCell id="PihJG26BdaLCd9-Ymn3N-45" style="edgeStyle=none;rounded=0;orthogonalLoop=1;jettySize=auto;html=1;exitX=0.5;exitY=0;exitDx=0;exitDy=0;entryX=0.5;entryY=1;entryDx=0;entryDy=0;startArrow=none;startFill=0;" edge="1" parent="1" source="PihJG26BdaLCd9-Ymn3N-47" target="PihJG26BdaLCd9-Ymn3N-37">
          <mxGeometry relative="1" as="geometry" />
        </mxCell>
        <mxCell id="PihJG26BdaLCd9-Ymn3N-46" style="edgeStyle=none;rounded=0;orthogonalLoop=1;jettySize=auto;html=1;exitX=0.5;exitY=0;exitDx=0;exitDy=0;startArrow=none;startFill=0;" edge="1" parent="1" source="PihJG26BdaLCd9-Ymn3N-47">
          <mxGeometry relative="1" as="geometry">
            <mxPoint x="564" y="320" as="targetPoint" />
          </mxGeometry>
        </mxCell>
        <mxCell id="PihJG26BdaLCd9-Ymn3N-47" value="" style="rounded=0;whiteSpace=wrap;html=1;fillColor=#dae8fc;strokeColor=#6c8ebf;" vertex="1" parent="1">
          <mxGeometry x="424" y="360" width="40" height="20" as="geometry" />
        </mxCell>
        <mxCell id="PihJG26BdaLCd9-Ymn3N-48" value="&lt;b&gt;. . .&lt;/b&gt;" style="text;html=1;align=center;verticalAlign=middle;resizable=0;points=[];autosize=1;strokeColor=none;" vertex="1" parent="1">
          <mxGeometry x="489" y="300" width="30" height="20" as="geometry" />
        </mxCell>
        <mxCell id="PihJG26BdaLCd9-Ymn3N-49" value="&lt;b&gt;. . .&lt;/b&gt;" style="text;html=1;align=center;verticalAlign=middle;resizable=0;points=[];autosize=1;strokeColor=none;" vertex="1" parent="1">
          <mxGeometry x="489" y="360" width="30" height="20" as="geometry" />
        </mxCell>
        <mxCell id="PihJG26BdaLCd9-Ymn3N-50" style="edgeStyle=none;rounded=0;orthogonalLoop=1;jettySize=auto;html=1;exitX=0.5;exitY=0;exitDx=0;exitDy=0;entryX=0.5;entryY=1;entryDx=0;entryDy=0;startArrow=none;startFill=0;" edge="1" parent="1" source="PihJG26BdaLCd9-Ymn3N-53" target="PihJG26BdaLCd9-Ymn3N-38">
          <mxGeometry relative="1" as="geometry" />
        </mxCell>
        <mxCell id="PihJG26BdaLCd9-Ymn3N-51" style="edgeStyle=none;rounded=0;orthogonalLoop=1;jettySize=auto;html=1;exitX=0.5;exitY=0;exitDx=0;exitDy=0;entryX=0.5;entryY=1;entryDx=0;entryDy=0;startArrow=none;startFill=0;" edge="1" parent="1" source="PihJG26BdaLCd9-Ymn3N-53" target="PihJG26BdaLCd9-Ymn3N-39">
          <mxGeometry relative="1" as="geometry" />
        </mxCell>
        <mxCell id="PihJG26BdaLCd9-Ymn3N-52" style="edgeStyle=none;rounded=0;orthogonalLoop=1;jettySize=auto;html=1;exitX=0.5;exitY=0;exitDx=0;exitDy=0;entryX=0.5;entryY=1;entryDx=0;entryDy=0;startArrow=none;startFill=0;" edge="1" parent="1" source="PihJG26BdaLCd9-Ymn3N-53" target="PihJG26BdaLCd9-Ymn3N-37">
          <mxGeometry relative="1" as="geometry" />
        </mxCell>
        <mxCell id="PihJG26BdaLCd9-Ymn3N-53" value="" style="rounded=0;whiteSpace=wrap;html=1;fillColor=#dae8fc;strokeColor=#6c8ebf;" vertex="1" parent="1">
          <mxGeometry x="544" y="360" width="40" height="20" as="geometry" />
        </mxCell>
        <mxCell id="PihJG26BdaLCd9-Ymn3N-54" style="edgeStyle=none;rounded=0;orthogonalLoop=1;jettySize=auto;html=1;exitX=0.5;exitY=0;exitDx=0;exitDy=0;entryX=0.5;entryY=1;entryDx=0;entryDy=0;startArrow=none;startFill=0;" edge="1" parent="1" source="PihJG26BdaLCd9-Ymn3N-55" target="PihJG26BdaLCd9-Ymn3N-43">
          <mxGeometry relative="1" as="geometry" />
        </mxCell>
        <mxCell id="PihJG26BdaLCd9-Ymn3N-55" value="[CLS]" style="rounded=0;whiteSpace=wrap;html=1;fillColor=#ffe6cc;strokeColor=#d79b00;" vertex="1" parent="1">
          <mxGeometry x="374" y="401" width="40" height="20" as="geometry" />
        </mxCell>
        <mxCell id="PihJG26BdaLCd9-Ymn3N-56" value="" style="edgeStyle=none;rounded=0;orthogonalLoop=1;jettySize=auto;html=1;startArrow=none;startFill=0;entryX=0.5;entryY=1;entryDx=0;entryDy=0;" edge="1" parent="1" source="PihJG26BdaLCd9-Ymn3N-57" target="PihJG26BdaLCd9-Ymn3N-47">
          <mxGeometry relative="1" as="geometry" />
        </mxCell>
        <mxCell id="PihJG26BdaLCd9-Ymn3N-57" value="&lt;i&gt;&lt;font style=&quot;font-size: 15px&quot;&gt;v&lt;sup&gt;(1)&lt;/sup&gt;&lt;/font&gt;&lt;/i&gt;" style="rounded=0;whiteSpace=wrap;html=1;fillColor=#ffe6cc;strokeColor=#d79b00;" vertex="1" parent="1">
          <mxGeometry x="424" y="401" width="40" height="20" as="geometry" />
        </mxCell>
        <mxCell id="PihJG26BdaLCd9-Ymn3N-58" style="edgeStyle=none;rounded=0;orthogonalLoop=1;jettySize=auto;html=1;entryX=0.5;entryY=1;entryDx=0;entryDy=0;startArrow=none;startFill=0;" edge="1" parent="1" source="PihJG26BdaLCd9-Ymn3N-59" target="PihJG26BdaLCd9-Ymn3N-53">
          <mxGeometry relative="1" as="geometry" />
        </mxCell>
        <mxCell id="PihJG26BdaLCd9-Ymn3N-59" value="&lt;i&gt;&lt;font style=&quot;font-size: 15px&quot;&gt;v&lt;sup&gt;(n)&lt;/sup&gt;&lt;/font&gt;&lt;/i&gt;" style="rounded=0;whiteSpace=wrap;html=1;fillColor=#ffe6cc;strokeColor=#d79b00;" vertex="1" parent="1">
          <mxGeometry x="544" y="401" width="40" height="20" as="geometry" />
        </mxCell>
        <mxCell id="PihJG26BdaLCd9-Ymn3N-60" value="" style="endArrow=none;html=1;" edge="1" parent="1">
          <mxGeometry width="50" height="50" relative="1" as="geometry">
            <mxPoint x="424" y="437" as="sourcePoint" />
            <mxPoint x="424" y="427" as="targetPoint" />
          </mxGeometry>
        </mxCell>
        <mxCell id="PihJG26BdaLCd9-Ymn3N-61" value="" style="endArrow=none;html=1;" edge="1" parent="1">
          <mxGeometry width="50" height="50" relative="1" as="geometry">
            <mxPoint x="585" y="437" as="sourcePoint" />
            <mxPoint x="585" y="427" as="targetPoint" />
          </mxGeometry>
        </mxCell>
        <mxCell id="PihJG26BdaLCd9-Ymn3N-62" value="" style="endArrow=none;html=1;" edge="1" parent="1">
          <mxGeometry width="50" height="50" relative="1" as="geometry">
            <mxPoint x="424" y="432" as="sourcePoint" />
            <mxPoint x="584" y="432" as="targetPoint" />
          </mxGeometry>
        </mxCell>
        <mxCell id="PihJG26BdaLCd9-Ymn3N-63" value="video (title+ocr)" style="text;html=1;align=center;verticalAlign=middle;resizable=0;points=[];autosize=1;strokeColor=none;" vertex="1" parent="1">
          <mxGeometry x="458" y="434" width="100" height="20" as="geometry" />
        </mxCell>
        <mxCell id="PihJG26BdaLCd9-Ymn3N-64" value="sim(q,v) =&amp;nbsp;&lt;i&gt;E&lt;sub&gt;q&lt;/sub&gt;(q)&amp;nbsp;&lt;/i&gt;&lt;i&gt;E&lt;span style=&quot;font-size: 10px&quot;&gt;&lt;sub&gt;v&lt;/sub&gt;&lt;/span&gt;(v)&lt;/i&gt;" style="text;html=1;align=center;verticalAlign=middle;resizable=0;points=[];autosize=1;strokeColor=none;" vertex="1" parent="1">
          <mxGeometry x="189" y="230" width="130" height="20" as="geometry" />
        </mxCell>
        <mxCell id="PihJG26BdaLCd9-Ymn3N-67" value="&lt;b&gt;&lt;font&gt;&lt;span style=&quot;font-size: 14px&quot;&gt;&lt;i&gt;M&lt;/i&gt;&lt;sub&gt;&lt;i&gt;D&lt;/i&gt;&amp;nbsp;&lt;/sub&gt;: A dual-encoder based on pre-trained ERNIE2.0&lt;/span&gt;&lt;/font&gt;&lt;/b&gt;" style="text;html=1;align=center;verticalAlign=middle;resizable=0;points=[];autosize=1;strokeColor=none;" vertex="1" parent="1">
          <mxGeometry x="169" y="460" width="360" height="20" as="geometry" />
        </mxCell>
      </root>
    </mxGraphModel>
  </diagram>
</mxfile>
